<svg width="20" height="17" viewBox="0 0 20 17" fill="none" xmlns="http://www.w3.org/2000/svg">
<path d="M14.5296 0.553711C17.375 0.553711 19.681 2.68841 19.681 5.67701C19.681 11.6542 12.6564 15.0698 10.3149 16.3506C7.97333 15.0698 0.94873 11.6542 0.94873 5.67701C0.94873 2.68841 3.29027 0.553711 6.1001 0.553711C7.8422 0.553711 9.37824 1.40759 10.3149 2.26147C11.2514 1.40759 12.7875 0.553711 14.5296 0.553711ZM11.1897 13.8777C12.0148 13.403 12.7594 12.9308 13.4563 12.4253C16.2483 10.4016 17.8077 8.18996 17.8077 5.67701C17.8077 3.66184 16.3682 2.26147 14.5296 2.26147C13.5218 2.26147 12.4316 2.74818 11.6392 3.46886L10.3149 4.67625L8.99048 3.46886C8.19811 2.74818 7.10789 2.26147 6.1001 2.26147C4.28307 2.26147 2.82196 3.6755 2.82196 5.67701C2.82196 8.19086 4.38235 10.4016 7.17252 12.4253C7.8703 12.9308 8.61491 13.403 9.44006 13.8769C9.72007 14.0383 9.99736 14.1928 10.3149 14.3653C10.6323 14.1928 10.9096 14.0383 11.1897 13.8777Z" fill="white"/>
</svg>
